<svg width="24" height="24" viewBox="0 0 24 24" fill="none" xmlns="http://www.w3.org/2000/svg"><path d="M15.47 3.846c.84-1.035 1.408-2.425 1.258-3.846-1.228.06-2.727.8-3.595 1.836-.779.887-1.469 2.336-1.289 3.697 1.379.118 2.757-.68 3.626-1.687zm1.243 1.951C14.71 5.68 13.008 6.92 12.05 6.92c-.956 0-2.42-1.062-4.005-1.034-2.061.03-3.974 1.18-5.02 3.009-2.152 3.659-.568 9.086 1.525 12.065 1.016 1.475 2.24 3.098 3.854 3.04 1.524-.06 2.122-.974 3.975-.974 1.852 0 2.39.973 4.004.944 1.674-.03 2.72-1.475 3.736-2.95 1.166-1.681 1.643-3.304 1.673-3.393-.03-.03-3.227-1.24-3.257-4.868-.03-3.037 2.51-4.483 2.63-4.572-1.435-2.093-3.676-2.33-4.453-2.389z" fill="#000000"/></svg>