<svg width="24" height="24" viewBox="0 0 24 24" fill="none" xmlns="http://www.w3.org/2000/svg"><path fill-rule="evenodd" clip-rule="evenodd" d="M1.257 17.317l4.13-3.086A6.974 6.974 0 015.023 12c0-.78.128-1.53.364-2.23l-4.13-3.087A11.787 11.787 0 000 12c0 1.912.452 3.717 1.257 5.317z" fill="#FBBC05"/><path fill-rule="evenodd" clip-rule="evenodd" d="M5.387 9.77c.953-2.83 3.671-4.86 6.892-4.86a7.2 7.2 0 014.52 1.58L20.373 3c-2.177-1.855-4.968-3-8.093-3C7.426 0 3.254 2.715 1.257 6.683l4.13 3.086z" fill="#EA4335"/><path fill-rule="evenodd" clip-rule="evenodd" d="M1.256 17.314C3.252 21.284 7.426 24 12.279 24c6.14 0 11.72-4.364 11.72-12 0-.71-.11-1.473-.278-2.182H12.279v4.636h6.586c-.614 2.946-3.181 4.637-6.586 4.637-3.224 0-5.945-2.037-6.895-4.87l-4.128 3.093z" fill="#34A853"/><path fill-rule="evenodd" clip-rule="evenodd" d="M12.279 9.818h11.442c.167.71.279 1.473.279 2.182 0 3.911-1.464 6.964-3.718 9.011l-3.92-2.966c1.282-.79 2.174-2.01 2.503-3.59h-6.586V9.817z" fill="#4285F4"/></svg>